<mxfile host="app.diagrams.net" modified="2023-05-04T09:57:41.439Z" agent="Mozilla/5.0 (Windows NT 10.0; Win64; x64) AppleWebKit/537.36 (KHTML, like Gecko) Chrome/112.0.0.0 Safari/537.36" version="21.2.3" etag="VnEoUb_KTpAs_nMyBg1i" type="github">
  <diagram name="Страница 1" id="oSfSVFDYunv6UaTHxILt">
    <mxGraphModel>
      <root>
        <mxCell id="0" />
        <mxCell id="1" parent="0" />
      </root>
    </mxGraphModel>
  </diagram>
</mxfile>
